<svg xmlns="http://www.w3.org/2000/svg" width="1240" height="1540" viewBox="0 0 1240 1540" style="background-color:#1a1a1a; font-family: sans-serif;">
<style>
  .title { fill: #fff; font-size: 16px; font-weight: bold; }
  .text { fill: #ccc; font-size: 12px; text-anchor: middle; }
  .shape { fill: #4488ff; stroke: #fff; stroke-width: 2px; }
</style>
<text x="20" y="40" class="title">Chapter 1: The Basics</text>
<polygon points="61,88 99,88 99,112 61,112" class="shape" />
<text x="80" y="175" class="text">Cuts: 1</text>
<polygon points="200,81 201.98604080208543,81.1040839880028 203.95032212553744,81.41519558605769 205.871322893124,81.92992619039208 207.7279962184402,82.64263630479059 209.5,83.54551732809566 211.167919793557,84.628677106876 212.7134815208183,85.8802483159295 214.11975168407048,87.2865184791817 215.371322893124,88.83208020644301 216.45448267190434,90.5 217.35736369520941,92.27200378155979 218.07007380960792,94.128677106876 218.58480441394232,96.04967787446257 218.8959160119972,98.01395919791459 219,100 218.8959160119972,101.98604080208541 218.58480441394232,103.95032212553743 218.07007380960792,105.871322893124 217.35736369520941,107.7279962184402 216.45448267190434,109.5 215.371322893124,111.16791979355699 214.1197516840705,112.7134815208183 212.7134815208183,114.1197516840705 211.167919793557,115.371322893124 209.5,116.45448267190433 207.7279962184402,117.35736369520941 205.871322893124,118.07007380960792 203.95032212553744,118.58480441394231 201.98604080208543,118.8959160119972 200,119 198.0139591979146,118.8959160119972 196.0496778744626,118.58480441394231 194.128677106876,118.07007380960792 192.2720037815598,117.35736369520941 190.5,116.45448267190434 188.832080206443,115.371322893124 187.2865184791817,114.1197516840705 185.88024831592952,112.7134815208183 184.628677106876,111.16791979355699 183.54551732809568,109.5 182.64263630479059,107.72799621844021 181.92992619039208,105.871322893124 181.41519558605768,103.95032212553744 181.1040839880028,101.98604080208543 181,100 181.1040839880028,98.01395919791459 181.41519558605768,96.04967787446259 181.92992619039208,94.128677106876 182.64263630479059,92.2720037815598 183.54551732809566,90.50000000000001 184.628677106876,88.83208020644301 185.8802483159295,87.2865184791817 187.2865184791817,85.88024831592952 188.832080206443,84.628677106876 190.5,83.54551732809567 192.2720037815598,82.64263630479059 194.12867710687598,81.92992619039208 196.04967787446256,81.41519558605769 198.01395919791457,81.1040839880028" class="shape" />
<text x="200" y="175" class="text">Cuts: 1</text>
<polygon points="320,80 340,100 320,120 300,100" class="shape" />
<text x="320" y="175" class="text">Cuts: 1</text>
<polygon points="440,80 457.3205080756888,90 457.3205080756888,110 440,120 422.6794919243112,110 422.6794919243112,90.00000000000001" class="shape" />
<text x="440" y="175" class="text">Cuts: 1</text>
<polygon points="545,85 555,85 555,95 565,95 565,85 575,85 575,115 565,115 565,105 555,105 555,115 545,115" class="shape" />
<text x="560" y="175" class="text">Cuts: 1</text>
<polygon points="660,92.5 700,92.5 700,107.5 660,107.5" class="shape" />
<text x="680" y="175" class="text">Cuts: 1</text>
<polygon points="795,80 805,80 805,95 820,95 820,105 805,105 805,120 795,120 795,105 780,105 780,95 795,95" class="shape" />
<text x="800" y="175" class="text">Cuts: 1</text>
<polygon points="920,80 934.142135623731,85.85786437626905 940,100 934.142135623731,114.14213562373095 920,120 905.857864376269,114.14213562373095 900,100 905.857864376269,85.85786437626905" class="shape" />
<text x="920" y="175" class="text">Cuts: 1</text>
<polygon points="1032.5,80 1047.5,80 1047.5,120 1032.5,120" class="shape" />
<text x="1040" y="175" class="text">Cuts: 1</text>
<polygon points="1160,77.5 1182.5,100 1160,122.5 1137.5,100" class="shape" />
<text x="1160" y="175" class="text">Cuts: 1</text>
<text x="20" y="190" class="title">Chapter 2: Precision Slicing</text>
<polygon points="61,238 99,238 99,262 61,262" class="shape" />
<text x="80" y="325" class="text">Cuts: 2</text>
<polygon points="200,230 220,250 200,270 180,250" class="shape" />
<text x="200" y="325" class="text">Cuts: 2</text>
<polygon points="320,230 337.3205080756888,240 337.3205080756888,260 320,270 302.6794919243112,260 302.6794919243112,240" class="shape" />
<text x="320" y="325" class="text">Cuts: 2</text>
<polygon points="440,230 454.14213562373095,235.85786437626905 460,250 454.14213562373095,264.14213562373095 440,270 425.85786437626905,264.14213562373095 420,250 425.85786437626905,235.85786437626905" class="shape" />
<text x="440" y="325" class="text">Cuts: 2</text>
<polygon points="555,230 565,230 565,245 580,245 580,255 565,255 565,270 555,270 555,255 540,255 540,245 555,245" class="shape" />
<text x="560" y="325" class="text">Cuts: 2</text>
<polygon points="657.5,235 665,235 665,227.5 695,227.5 695,235 702.5,235 702.5,265 695,265 695,272.5 665,272.5 665,265 657.5,265" class="shape" />
<text x="680" y="325" class="text">Cuts: 2</text>
<polygon points="800,230 807.0710678118655,242.92893218813452 820,250 807.0710678118655,257.0710678118655 800,270 792.9289321881345,257.0710678118655 780,250 792.9289321881345,242.92893218813452" class="shape" />
<text x="800" y="325" class="text">Cuts: 2</text>
<polygon points="905,235 915,235 915,245 925,245 925,235 935,235 935,265 925,265 925,255 915,255 915,265 905,265" class="shape" />
<text x="920" y="325" class="text">Cuts: 2</text>
<polygon points="1040,230 1042.090569265353,230.10956209263452 1044.1582338163553,230.4370479853239 1046.180339887499,230.97886967409693 1048.134732861516,231.72909084714797 1050,232.67949192431124 1051.7557050458495,233.81966011250105 1053.3826121271773,235.13710349045212 1054.862896509548,236.61738787282283 1056.180339887499,238.24429495415055 1057.3205080756888,240 1058.270909152852,241.865267138484 1059.021130325903,243.81966011250105 1059.562952014676,245.8417661836448 1059.8904379073654,247.90943073464692 1060,250 1059.8904379073654,252.09056926535305 1059.562952014676,254.1582338163552 1059.021130325903,256.180339887499 1058.270909152852,258.134732861516 1057.3205080756888,260 1056.180339887499,261.7557050458495 1054.862896509548,263.38261212717714 1053.3826121271773,264.8628965095479 1051.7557050458495,266.180339887499 1050,267.3205080756888 1048.134732861516,268.270909152852 1046.180339887499,269.0211303259031 1044.1582338163553,269.5629520146761 1042.090569265353,269.8904379073655 1040,270 1037.909430734647,269.8904379073655 1035.8417661836447,269.5629520146761 1033.819660112501,269.0211303259031 1031.8652671384841,268.270909152852 1030,267.3205080756888 1028.2442949541505,266.180339887499 1026.6173878728227,264.8628965095479 1025.137103490452,263.38261212717714 1023.8196601125011,261.7557050458495 1022.6794919243113,260 1021.729090847148,258.134732861516 1020.9788696740969,256.180339887499 1020.4370479853239,254.1582338163552 1020.1095620926345,252.09056926535308 1020,250 1020.1095620926345,247.90943073464695 1020.4370479853238,245.84176618364484 1020.9788696740969,243.81966011250105 1021.729090847148,241.865267138484 1022.6794919243113,240 1023.8196601125011,238.24429495415055 1025.137103490452,236.61738787282283 1026.6173878728227,235.13710349045212 1028.2442949541505,233.81966011250105 1030,232.67949192431124 1031.865267138484,231.729090847148 1033.819660112501,230.97886967409693 1035.8417661836447,230.4370479853239 1037.909430734647,230.10956209263452" class="shape" />
<text x="1040" y="325" class="text">Cuts: 2</text>
<polygon points="1160,230 1163.826834323651,240.76120467488713 1174.142135623731,235.85786437626905 1169.238795325113,246.1731656763491 1180,250 1169.238795325113,253.8268343236509 1174.142135623731,264.14213562373095 1163.826834323651,259.23879532511285 1160,270 1156.173165676349,259.23879532511285 1145.857864376269,264.14213562373095 1150.761204674887,253.8268343236509 1140,250 1150.761204674887,246.1731656763491 1145.857864376269,235.85786437626905 1156.173165676349,240.76120467488713" class="shape" />
<text x="1160" y="325" class="text">Cuts: 2</text>
<text x="20" y="340" class="title">Chapter 3: Complex Geometry</text>
<polygon points="80,380 97.32050807568878,410 62.67949192431123,410" class="shape" />
<text x="80" y="475" class="text">Cuts: 3</text>
<polygon points="200,380 217.32050807568876,390 217.32050807568876,410 200,420 182.67949192431124,410 182.6794919243112,390" class="shape" />
<text x="200" y="475" class="text">Cuts: 3</text>
<polygon points="320,380 328.66025403784437,395 337.3205080756888,410 320,410 302.6794919243112,410 311.33974596215563,395" class="shape" />
<text x="320" y="475" class="text">Cuts: 3</text>
<polygon points="440,380 445,391.33974596215563 457.3205080756888,390 450,400 457.3205080756888,410 445,408.66025403784437 440,420 435,408.66025403784437 422.6794919243112,410 430,400 422.6794919243112,390 435,391.33974596215563" class="shape" />
<text x="440" y="475" class="text">Cuts: 3</text>
<polygon points="565,400 580.723872365065,408.76191270194465 578.5700513354677,412.7044556513883 557.5,404.3301270189222 542.0500248318419,413.5664435819602 539.7125929969111,409.7299083804021 557.5,395.6698729810778 557.2261028030931,377.67164371609516 561.7173556676212,377.5656359682096" class="shape" />
<text x="560" y="475" class="text">Cuts: 3</text>
<polygon points="687.3504993338094,398.509980019037 702.5,400 686.9079574550217,402.9206375673149 677.6151454887557,407.11072914406094 668.75,419.48557158514984 674.0166749439474,404.5221478606534 675.034355177435,394.37929083690204 668.75,380.51442841485016 679.0753676010311,392.55721457203174" class="shape" />
<text x="680" y="475" class="text">Cuts: 3</text>
<polygon points="820,400 817.3205080756887,410 806.25,410.8253175473055 800,412.5 790,417.3205080756888 782.6794919243113,410 787.5,400 789.1746824526945,393.75 790,382.6794919243112 800,380 806.25,389.1746824526945 810.8253175473055,393.75" class="shape" />
<text x="800" y="475" class="text">Cuts: 3</text>
<polygon points="923.3623579806559,377.75265074643903 925.4745247992767,386.03470092614896 940.9479486107765,391.78821280108497 934.8315661690407,397.758428012896 937.5855906301206,414.0355620546459 929.3570413697639,411.72372708674703 916.6376420193441,422.24734925356097 914.5254752007233,413.96529907385104 899.0520513892235,408.21178719891503 905.1684338309593,402.241571987104 902.4144093698794,385.9644379453541 910.6429586302361,388.27627291325297" class="shape" />
<text x="920" y="475" class="text">Cuts: 3</text>
<polygon points="1062.5,400 1053.2814801114746,403.5587618701597 1055.1554445662277,408.75 1055.9099025766973,415.90990257669733 1048.75,415.1554445662277 1043.5587618701597,413.2814801114747 1040,422.5 1036.4412381298403,413.2814801114747 1031.25,415.1554445662277 1024.0900974233027,415.90990257669733 1024.8445554337723,408.75 1026.7185198885254,403.5587618701597 1017.5,400 1026.7185198885254,396.4412381298404 1024.8445554337723,391.25 1024.0900974233027,384.09009742330267 1031.25,384.8445554337723 1036.4412381298403,386.7185198885253 1040,377.5 1043.5587618701597,386.7185198885253 1048.75,384.8445554337723 1055.9099025766973,384.09009742330267 1055.1554445662277,391.25 1053.2814801114746,396.4412381298403" class="shape" />
<text x="1040" y="475" class="text">Cuts: 3</text>
<polygon points="1160,380 1162.090569265353,380.1095620926345 1164.1582338163553,380.4370479853239 1166.180339887499,380.9788696740969 1168.134732861516,381.729090847148 1170,382.6794919243112 1171.7557050458495,383.819660112501 1173.3826121271773,385.1371034904521 1174.862896509548,386.61738787282286 1176.180339887499,388.2442949541505 1177.3205080756888,390 1178.270909152852,391.865267138484 1179.021130325903,393.819660112501 1179.562952014676,395.84176618364484 1179.8904379073654,397.90943073464695 1180,400 1179.8904379073654,402.09056926535305 1179.562952014676,404.15823381635516 1179.021130325903,406.180339887499 1178.270909152852,408.134732861516 1177.3205080756888,410 1176.180339887499,411.7557050458495 1174.862896509548,413.38261212717714 1173.3826121271773,414.8628965095479 1171.7557050458495,416.180339887499 1170,417.3205080756888 1168.134732861516,418.270909152852 1166.180339887499,419.0211303259031 1164.1582338163553,419.5629520146761 1162.090569265353,419.8904379073655 1160,420 1157.909430734647,419.8904379073655 1155.8417661836447,419.5629520146761 1153.819660112501,419.0211303259031 1151.8652671384841,418.270909152852 1150,417.3205080756888 1148.2442949541505,416.180339887499 1146.6173878728227,414.8628965095479 1145.137103490452,413.38261212717714 1143.819660112501,411.7557050458495 1142.6794919243112,410 1141.729090847148,408.134732861516 1140.978869674097,406.180339887499 1140.437047985324,404.1582338163552 1140.1095620926346,402.0905692653531 1140,400 1140.1095620926346,397.90943073464695 1140.437047985324,395.84176618364484 1140.978869674097,393.8196601125011 1141.729090847148,391.865267138484 1142.6794919243112,390 1143.819660112501,388.2442949541505 1145.137103490452,386.61738787282286 1146.6173878728227,385.13710349045215 1148.2442949541505,383.819660112501 1150,382.6794919243112 1151.865267138484,381.729090847148 1153.819660112501,380.9788696740969 1155.8417661836447,380.4370479853239 1157.909430734647,380.1095620926345" class="shape" />
<text x="1160" y="475" class="text">Cuts: 3</text>
<text x="20" y="490" class="title">Chapter 4: Master Slicer</text>
<polygon points="80,530 100,550 80,570 60,550" class="shape" />
<text x="80" y="625" class="text">Cuts: 4</text>
<polygon points="200,530 214.14213562373095,535.857864376269 220,550 214.14213562373095,564.142135623731 200,570 185.85786437626905,564.142135623731 180,550 185.85786437626905,535.857864376269" class="shape" />
<text x="200" y="625" class="text">Cuts: 4</text>
<polygon points="320,530 327.0710678118655,542.9289321881345 340,550 327.0710678118655,557.0710678118655 320,570 312.9289321881345,557.0710678118655 300,550 312.9289321881345,542.9289321881345" class="shape" />
<text x="320" y="625" class="text">Cuts: 4</text>
<polygon points="440,530 443.82683432365087,540.7612046748872 454.14213562373095,535.857864376269 449.23879532511285,546.1731656763491 460,550 449.23879532511285,553.8268343236509 454.14213562373095,564.142135623731 443.82683432365087,559.2387953251128 440,570 436.17316567634913,559.2387953251128 425.85786437626905,564.142135623731 430.76120467488715,553.8268343236509 420,550 430.76120467488715,546.1731656763491 425.85786437626905,535.857864376269 436.1731656763491,540.7612046748872" class="shape" />
<text x="440" y="625" class="text">Cuts: 4</text>
<polygon points="565,550 580.723872365065,558.7619127019447 578.5700513354677,562.7044556513883 560,555 551.2380872980553,570.723872365065 547.2955443486117,568.5700513354677 555,550 539.276127634935,541.2380872980553 541.4299486645323,537.2955443486117 560,545 568.7619127019447,529.276127634935 572.7044556513882,531.4299486645323" class="shape" />
<text x="560" y="625" class="text">Cuts: 4</text>
<polygon points="687.3504993338094,548.509980019037 702.5,550 686.9079574550217,552.9206375673149 681.490019980963,557.3504993338094 680,572.5 677.0793624326851,556.9079574550217 672.6495006661906,551.490019980963 657.5,550 673.0920425449783,547.0793624326851 678.509980019037,542.6495006661906 680,527.5 682.9206375673149,543.0920425449783" class="shape" />
<text x="680" y="625" class="text">Cuts: 4</text>
<polygon points="820,550 818.4775906502257,557.6536686473017 808.8388347648319,558.8388347648319 804.7835429045637,561.548494156391 800,570 792.3463313526983,568.4775906502257 791.1611652351681,558.8388347648319 788.451505843609,554.7835429045637 780,550 781.5224093497743,542.3463313526983 791.1611652351681,541.1611652351681 795.2164570954363,538.451505843609 800,530 807.6536686473019,531.5224093497743 808.8388347648319,541.1611652351681 811.548494156391,545.2164570954363" class="shape" />
<text x="800" y="625" class="text">Cuts: 4</text>
<polygon points="923.3623579806559,527.752650746439 923.6048521693824,535.4396071194182 938.108797649517,536.6462946082801 932.844767956745,542.2532628715455 942.247349253561,553.3623579806559 934.5603928805818,553.6048521693824 933.3537053917199,568.108797649517 927.7467371284545,562.844767956745 916.6376420193441,572.247349253561 916.3951478306176,564.5603928805818 901.891202350483,563.3537053917199 907.155232043255,557.7467371284545 897.752650746439,546.6376420193441 905.4396071194182,546.3951478306176 906.6462946082801,531.891202350483 912.2532628715455,537.155232043255" class="shape" />
<text x="920" y="625" class="text">Cuts: 4</text>
<polygon points="1035,530 1045,530 1045,545 1060,545 1060,555 1045,555 1045,570 1035,570 1035,555 1020,555 1020,545 1035,545" class="shape" />
<text x="1040" y="625" class="text">Cuts: 4</text>
<polygon points="1137.5,535 1145,535 1145,527.5 1175,527.5 1175,535 1182.5,535 1182.5,565 1175,565 1175,572.5 1145,572.5 1145,565 1137.5,565" class="shape" />
<text x="1160" y="625" class="text">Cuts: 4</text>
<text x="20" y="640" class="title">Chapter 5: Advanced Symmetrical</text>
<polygon points="80,680 99.02113032590307,693.8196601125011 91.75570504584947,716.1803398874989 68.24429495415053,716.1803398874989 60.97886967409693,693.8196601125011" class="shape" />
<text x="80" y="775" class="text">Cuts: 5</text>
<polygon points="200,680 211.75570504584945,683.8196601125011 219.02113032590307,693.8196601125011 219.02113032590307,706.1803398874989 211.75570504584945,716.1803398874989 200,720 188.24429495415055,716.1803398874989 180.97886967409693,706.1803398874989 180.97886967409693,693.8196601125011 188.24429495415055,683.8196601125011" class="shape" />
<text x="200" y="775" class="text">Cuts: 5</text>
<polygon points="320,680 324.40838939219356,693.9323725421879 339.0211303259031,693.8196601125011 327.13292387221367,702.3176274578121 331.7557050458495,716.1803398874989 320,707.5 308.2442949541505,716.1803398874989 312.86707612778633,702.3176274578121 300.9788696740969,693.8196601125011 315.59161060780644,693.9323725421879" class="shape" />
<text x="320" y="775" class="text">Cuts: 5</text>
<polygon points="440,680 443.86271242968684,688.1117935463105 451.7557050458495,683.8196601125011 450.11271242968684,692.6526843463441 459.0211303259031,693.8196601125011 452.5,700 459.0211303259031,706.1803398874989 450.11271242968684,707.3473156536559 451.7557050458495,716.1803398874989 443.86271242968684,711.8882064536895 440,720 436.13728757031316,711.8882064536895 428.2442949541505,716.1803398874989 429.88728757031316,707.3473156536559 420.9788696740969,706.1803398874989 427.5,700 420.9788696740969,693.8196601125011 429.88728757031316,692.6526843463441 428.2442949541505,683.8196601125011 436.13728757031316,688.1117935463105" class="shape" />
<text x="440" y="775" class="text">Cuts: 5</text>
<polygon points="565,700 580.723872365065,708.7619127019447 578.5700513354677,712.7044556513883 561.5450849718748,704.7552825814757 558.0709545796686,722.4171537837947 553.6558061158391,721.587061031094 555.9549150281252,702.9389262614624 538.0839119993279,705.0926502674738 537.5090212129016,700.6370817830461 555.9549150281252,697.0610737385376 548.3841581354823,680.7302771743203 552.4440045534811,678.8066771644419 561.5450849718748,695.2447174185243 574.7371029204561,682.9980060724665 577.8211167823104,686.2647243700296" class="shape" />
<text x="560" y="775" class="text">Cuts: 5</text>
<polygon points="687.3504993338094,698.509980019037 702.5,700 686.9079574550217,702.9206375673149 683.6885224235936,706.5302987933668 686.9528823734363,721.3987716166409 679.3569848598895,707.4723845945982 674.9291328922377,705.525966591956 661.7971176265637,713.2251681765806 672.6946373331093,701.697550089158 673.1775093513754,696.8849363811585 661.7971176265637,686.7748318234194 676.1280527118274,693.5767590581067 680.854335998984,692.5488182144817 686.9528823734363,678.6012283833591 684.9123676401521,694.3326686908222" class="shape" />
<text x="680" y="775" class="text">Cuts: 5</text>
<polygon points="820,700 819.0211303259031,706.1803398874989 810.1127124296869,707.3473156536559 807.3473156536559,710.1127124296869 806.1803398874989,719.0211303259031 800,720 796.1372875703131,711.8882064536895 792.6526843463441,710.1127124296869 783.8196601125011,711.7557050458495 780.9788696740969,706.1803398874989 787.5,700 788.1117935463105,696.1372875703131 783.8196601125011,688.2442949541505 788.2442949541505,683.8196601125011 796.1372875703131,688.1117935463105 800,687.5 806.1803398874989,680.9788696740969 811.7557050458495,683.8196601125011 810.1127124296869,692.6526843463441 811.8882064536895,696.1372875703131" class="shape" />
<text x="800" y="775" class="text">Cuts: 5</text>
<polygon points="923.3623579806559,677.752650746439 922.4513443543501,685.2016585099412 935.796868541366,683.9778608080319 930.6814261279787,689.468754305756 942.1975122350882,696.3229834684747 934.8315661690407,697.758428012896 940.1194607206984,710.072601466765 933.316552039922,706.9043060308801 930.3564590463202,719.9748280598831 926.71506764451,713.4129738137989 916.6376420193441,722.247349253561 917.5486556456499,714.7983414900588 904.203131458634,716.0221391919681 909.3185738720213,710.531245694244 897.8024877649118,703.6770165315253 905.1684338309593,702.241571987104 899.8805392793016,689.927398533235 906.683447960078,693.0956939691199 909.6435409536798,680.0251719401169 913.28493235549,686.5870261862011" class="shape" />
<text x="920" y="775" class="text">Cuts: 5</text>
<polygon points="1062.5,700 1053.580714683183,702.1509738943032 1056.6434890351652,705.4077974015615 1060.0476467942383,710.2147862441398 1054.1577974015615,710.2862419151182 1049.722718241315,709.7227182413151 1053.2251681765806,718.2028823734363 1046.2423693714188,712.2513397075901 1045.4077974015615,716.6434890351652 1043.5197754634053,722.2229876633907 1040,717.5 1037.8490261056968,713.5807146831831 1033.0471176265637,721.3987716166409 1033.7576306285812,712.2513397075901 1029.7137580848816,714.1577974015615 1024.0900974233027,715.9099025766973 1025.8422025984385,710.2862419151182 1027.74866029241,706.2423693714188 1018.6012283833591,706.9528823734363 1026.419285316817,702.1509738943032 1017.5,700 1026.419285316817,697.8490261056968 1023.3565109648348,694.5922025984385 1019.9523532057617,689.7852137558602 1025.8422025984385,689.7137580848818 1030.277281758685,690.2772817586849 1026.7748318234194,681.7971176265637 1033.7576306285812,687.7486602924099 1034.5922025984385,683.3565109648348 1036.4802245365947,677.7770123366095 1040,682.5 1042.1509738943032,686.4192853168169 1046.9528823734363,678.6012283833591 1046.2423693714188,687.7486602924099 1050.2862419151184,685.8422025984385 1055.9099025766973,684.0900974233027 1054.1577974015615,689.7137580848818 1052.25133970759,693.7576306285812 1061.398771616641,693.0471176265637 1053.580714683183,697.8490261056968" class="shape" />
<text x="1040" y="775" class="text">Cuts: 5</text>
<polygon points="1160,680 1162.090569265353,680.1095620926345 1164.1582338163553,680.4370479853239 1166.180339887499,680.9788696740969 1168.134732861516,681.729090847148 1170,682.6794919243113 1171.7557050458495,683.8196601125011 1173.3826121271773,685.1371034904521 1174.862896509548,686.6173878728229 1176.180339887499,688.2442949541505 1177.3205080756888,690 1178.270909152852,691.865267138484 1179.021130325903,693.8196601125011 1179.562952014676,695.8417661836448 1179.8904379073654,697.9094307346469 1180,700 1179.8904379073654,702.0905692653531 1179.562952014676,704.1582338163552 1179.021130325903,706.1803398874989 1178.270909152852,708.134732861516 1177.3205080756888,710 1176.180339887499,711.7557050458495 1174.862896509548,713.3826121271771 1173.3826121271773,714.8628965095479 1171.7557050458495,716.1803398874989 1170,717.3205080756887 1168.134732861516,718.270909152852 1166.180339887499,719.0211303259031 1164.1582338163553,719.5629520146761 1162.090569265353,719.8904379073655 1160,720 1157.909430734647,719.8904379073655 1155.8417661836447,719.5629520146762 1153.819660112501,719.0211303259031 1151.8652671384841,718.270909152852 1150,717.3205080756887 1148.2442949541505,716.1803398874989 1146.6173878728227,714.8628965095479 1145.137103490452,713.3826121271771 1143.819660112501,711.7557050458495 1142.6794919243112,710 1141.729090847148,708.134732861516 1140.978869674097,706.1803398874989 1140.437047985324,704.1582338163552 1140.1095620926346,702.0905692653531 1140,700 1140.1095620926346,697.9094307346469 1140.437047985324,695.8417661836448 1140.978869674097,693.8196601125011 1141.729090847148,691.865267138484 1142.6794919243112,690 1143.819660112501,688.2442949541505 1145.137103490452,686.6173878728229 1146.6173878728227,685.1371034904521 1148.2442949541505,683.8196601125011 1150,682.6794919243113 1151.865267138484,681.729090847148 1153.819660112501,680.9788696740969 1155.8417661836447,680.4370479853239 1157.909430734647,680.1095620926345" class="shape" />
<text x="1160" y="775" class="text">Cuts: 5</text>
<text x="20" y="790" class="title">Chapter 6: Asymmetric &amp; Puzzle Blocks</text>
<polygon points="60,830 85,830 85,850 100,850 100,870 75,870 75,850 60,850" class="shape" />
<text x="80" y="925" class="text">Cuts: 3</text>
<polygon points="180,830 220,830 220,850 205,850 205,870 195,870 195,850 180,850" class="shape" />
<text x="200" y="925" class="text">Cuts: 3</text>
<polygon points="305,830 315,830 315,860 335,860 335,870 305,870" class="shape" />
<text x="320" y="925" class="text">Cuts: 2</text>
<polygon points="420,865 460,870 445,830" class="shape" />
<text x="440" y="925" class="text">Cuts: 1</text>
<polygon points="550,825 575,825 565,845 580,845 560,875 565,855 550,855" class="shape" />
<text x="560" y="925" class="text">Cuts: 3</text>
<polygon points="660,840 670,840 670,845 690,845 690,835 705,835 705,865 690,865 690,855 670,855 670,860 660,860" class="shape" />
<text x="680" y="925" class="text">Cuts: 1</text>
<polygon points="780,830 805,830 805,850 820,850 820,870 795,870 795,850 780,850" class="shape" />
<text x="800" y="925" class="text">Cuts: 1</text>
<polygon points="900,830 940,830 940,850 925,850 925,870 915,870 915,850 900,850" class="shape" />
<text x="920" y="925" class="text">Cuts: 1</text>
<polygon points="1025,830 1035,830 1035,860 1055,860 1055,870 1025,870" class="shape" />
<text x="1040" y="925" class="text">Cuts: 1</text>
<polygon points="1145,835 1155,835 1155,855 1165,855 1165,835 1175,835 1175,865 1145,865" class="shape" />
<text x="1160" y="925" class="text">Cuts: 1</text>
<text x="20" y="940" class="title">Chapter 7: Negative Space &amp; Hollows</text>
<polygon points="80.22499625001875,977.501124990625 82.56808568228442,977.6470374239018 84.88321730532542,978.0362983823543 87.14518712821048,978.6646701243487 89.32936991307608,979.5253117966356 91.41198726108126,980.6088539082158 93.37036647913592,981.9035003325616 95.1831874092151,983.39515672773 96.8307145331189,985.0675839763064 98.29501182583834,986.9025749747351 99.56013801849741,988.8801528473934 100.61232014511464,990.9787884275281 101.4401034838447,993.1756346374165 102.03447626034405,995.4467752161424 102.38896775566111,997.7674850871794 102.49971875058594,1000.1124995312506 102.36552353955778,1002.456289234086 101.98784305674047,1004.7733382147246 101.37078897136655,1007.0384216086646 100.52107892549884,1009.2268802817338 99.44796340151903,1011.3148892850604 98.16312501551056,1013.2797172285758 96.68055133289164,1015.0999737493403 95.01638259090828,1016.7558423805987 93.18873598577673,1018.2292962864033 91.21750843739686,1019.5042945131817 89.12415997886497,1020.5669566217289 86.93148012894524,1021.4057137984706 84.663339790917,1022.0114348009041 82.34443137878449,1022.3775253660938 80,1022.5 77.65556862121551,1022.3775253660938 75.336660209083,1022.0114348009041 73.06851987105475,1021.4057137984706 70.87584002113502,1020.5669566217289 68.78249156260313,1019.5042945131817 66.81126401422326,1018.2292962864033 64.9836174090917,1016.7558423805987 63.319448667108375,1015.0999737493404 61.83687498448944,1013.2797172285759 60.55203659848097,1011.3148892850604 59.47892107450116,1009.2268802817338 58.629211028633456,1007.0384216086646 58.012156943259534,1004.7733382147246 57.634476460442215,1002.456289234086 57.50028124941406,1000.1124995312506 57.61103224433889,997.7674850871792 57.96552373965595,995.4467752161424 58.55989651615531,993.1756346374164 59.38767985488536,990.9787884275281 60.439861981502595,988.8801528473934 61.704988174161656,986.9025749747351 63.169285466881114,985.0675839763064 64.81681259078489,983.39515672773 66.62963352086408,981.9035003325616 68.58801273891874,980.6088539082158 70.67063008692392,979.5253117966356 72.8548128717895,978.6646701243487 75.11678269467458,978.0362983823543 77.43191431771558,977.6470374239018 79.77500374998125,977.501124990625 79.90000166665834,990.0004999958334 78.85862858565137,990.0653499661786 77.82968119763315,990.238354836602 76.8243612763509,990.5176311663772 75.85361337196619,990.9001385762824 74.92800566174166,991.3817128480958 74.05761489816182,991.9571112589163 73.25191670701551,992.6200696567689 72.51968242972494,993.3633706561362 71.86888363296073,994.1789222109934 71.30660532511226,995.0578457099526 70.83896882439349,995.990572634457 70.47106511829125,996.9669487277406 70.20689943984709,997.9763445405077 70.04934766415062,999.0077711498575 70.00012499973958,1000.0499997916669 70.0597673157521,1001.0916841040382 70.22762530811535,1002.1214836509887 70.50187156828153,1003.1281873816288 70.87952047755607,1004.1008356807706 71.35646071043598,1005.0288396822491 71.92749999310642,1005.9020965460337 72.58642162982594,1006.7110994441513 73.32605218181854,1007.4470410580439 74.138339561877,1008.1019094606237 75.01444069449028,1008.6685753391919 75.94481778717112,1009.1408696096573 76.91934216491322,1009.513650577098 77.92740453737022,1009.7828599115129 78.958030498318,1009.945566829375 80,1010 81.04196950168199,1009.945566829375 82.07259546262978,1009.7828599115129 83.08065783508677,1009.513650577098 84.05518221282887,1009.1408696096573 84.98555930550971,1008.6685753391919 85.861660438123,1008.1019094606237 86.67394781818146,1007.4470410580439 87.41357837017406,1006.7110994441513 88.07250000689359,1005.9020965460337 88.64353928956402,1005.0288396822491 89.12047952244393,1004.1008356807706 89.49812843171847,1003.1281873816288 89.77237469188465,1002.1214836509887 89.9402326842479,1001.0916841040382 89.99987500026042,1000.0499997916669 89.95065233584938,999.0077711498575 89.79310056015291,997.9763445405077 89.52893488170875,996.9669487277406 89.16103117560651,995.990572634457 88.69339467488774,995.0578457099526 88.13111636703927,994.1789222109934 87.48031757027506,993.3633706561362 86.74808329298449,992.6200696567689 85.94238510183818,991.9571112589163 85.07199433825834,991.3817128480958 84.14638662803381,990.9001385762824 83.1756387236491,990.5176311663772 82.17031880236685,990.238354836602 81.14137141434863,990.0653499661786 80.09999833334167,990.0004999958334" class="shape" />
<text x="80" y="1075" class="text">Cuts: 1</text>
<polygon points="200.562441408081,977.5070308837967 222.49824221038807,1000.2812426758385 200,1022.5 177.50175778961193,1000.2812426758385 199.43755859191896,977.5070308837967 199.68753255106608,987.5039060465538 187.5009765497844,1000.1562459310214 200,1012.5 212.4990234502156,1000.1562459310213 200.31246744893392,987.5039060465538" class="shape" />
<text x="200" y="1075" class="text">Cuts: 1</text>
<polygon points="320.56244140808104,977.5070308837967 339.39114609178426,1011.4119872610812 300.6088539082158,1011.4119872610813 319.43755859191896,977.5070308837967 319.75002604085284,990.0031248372429 311.3817128480959,1005.0719943382584 328.6182871519041,1005.0719943382584 320.2499739591471,990.0031248372429" class="shape" />
<text x="320" y="1075" class="text">Cuts: 1</text>
<polygon points="455.90990257669733,984.0900974233027 457.66963094481673,986.0703861405287 459.18440369796707,988.2437822938912 460.4332214110643,990.5801559054079 461.39877161664094,993.0471176265637 462.0676688090727,995.6104677546372 462.4306400089954,998.2346703461235 462.48265331541626,1000.883345854579 462.2229876633906,1003.5197754634052 461.65524282020704,1006.1074101219642 460.78728948150393,1008.6103772282145 459.63116015913795,1010.9939779336814 458.2028823734363,1013.2251681765806 456.52225646230295,1015.2730167744912 454.61258108742913,1017.1091342260007 452.50033024294106,1018.7080662768072 450.2147862441398,1020.0476467942383 447.7876337842436,1021.1093050582559 445.25252068675786,1021.8783232089477 442.64459144280136,1022.3440402814858 440,1022.5 437.35540855719864,1022.3440402814858 434.74747931324214,1021.8783232089477 432.2123662157564,1021.1093050582559 429.7852137558602,1020.0476467942383 427.49966975705894,1018.7080662768072 425.38741891257087,1017.1091342260007 423.47774353769705,1015.2730167744912 421.7971176265637,1013.2251681765806 420.36883984086205,1010.9939779336814 419.21271051849607,1008.6103772282145 418.34475717979296,1006.1074101219642 417.7770123366094,1003.5197754634052 417.51734668458374,1000.883345854579 417.5693599910046,998.2346703461235 417.9323311909273,995.610467754637 418.60122838335906,993.0471176265637 419.5667785889357,990.5801559054079 420.81559630203293,988.2437822938912 422.33036905518327,986.0703861405287 424.09009742330267,984.0900974233027 431.16116523516814,991.1611652351681 430.1835383639907,992.261325633627 429.34199794557384,993.4687679410506 428.64821032718646,994.7667532807822 428.1117935463106,996.1372875703131 427.74018399495964,997.5613709747984 427.5385333283359,999.0192613034019 427.509637046991,1000.4907476969884 427.6538957425608,1001.9554308130029 427.9693095443294,1003.3930056233135 428.4515058436089,1004.7835429045637 429.09379991159005,1006.107765518712 429.88728757031316,1007.3473156536559 430.8209686320539,1008.4850093191618 431.8818993958727,1009.5050745700004 433.05537208725497,1010.3933701537818 434.32511875325565,1011.1375815523546 435.6735367865313,1011.727391699031 437.0819329518012,1012.154624004971 438.53078253177705,1012.4133557119366 440,1012.5 441.46921746822295,1012.4133557119366 442.9180670481988,1012.154624004971 444.3264632134687,1011.727391699031 445.67488124674435,1011.1375815523546 446.94462791274503,1010.3933701537818 448.1181006041273,1009.5050745700004 449.1790313679461,1008.4850093191618 450.11271242968684,1007.3473156536559 450.90620008840995,1006.107765518712 451.5484941563911,1004.7835429045637 452.0306904556706,1003.3930056233135 452.3461042574392,1001.9554308130029 452.490362953009,1000.4907476969884 452.4614666716641,999.0192613034019 452.25981600504036,997.5613709747984 451.8882064536894,996.1372875703131 451.35178967281354,994.7667532807822 450.65800205442616,993.4687679410506 449.8164616360093,992.261325633627 448.83883476483186,991.1611652351681" class="shape" />
<text x="440" y="1075" class="text">Cuts: 1</text>
<polygon points="545,995 545.3277859889929,998.1186753622663 546.296818135361,1001.101049646137 547.8647450843758,1003.8167787843871 549.9630409046172,1006.1471723821609 552.5,1007.9903810567665 555.3647450843758,1009.2658477444273 558.4320730509852,1009.9178284305241 561.5679269490148,1009.9178284305241 564.6352549156242,1009.2658477444273 567.5,1007.9903810567666 570.0369590953828,1006.1471723821609 572.1352549156242,1003.8167787843871 573.703181864639,1001.101049646137 574.6722140110071,998.1186753622663 575,995 574.6722140110071,991.8813246377337 573.703181864639,988.898950353863 572.1352549156242,986.1832212156129 567.5,1020 552.5,1020" class="shape" />
<text x="560" y="1075" class="text">Cuts: 1</text>
<polygon points="680.2249962500188,977.501124990625 682.5680856822844,977.6470374239018 684.8832173053254,978.0362983823543 687.1451871282105,978.6646701243487 689.3293699130761,979.5253117966356 691.4119872610812,980.6088539082158 693.3703664791359,981.9035003325616 695.1831874092151,983.39515672773 696.8307145331189,985.0675839763064 698.2950118258384,986.9025749747351 699.5601380184974,988.8801528473934 700.6123201451146,990.9787884275281 701.4401034838447,993.1756346374165 702.034476260344,995.4467752161424 702.3889677556612,997.7674850871794 702.4997187505859,1000.1124995312506 702.3655235395578,1002.456289234086 701.9878430567404,1004.7733382147246 701.3707889713666,1007.0384216086646 700.5210789254988,1009.2268802817338 699.447963401519,1011.3148892850604 698.1631250155106,1013.2797172285758 696.6805513328916,1015.0999737493403 695.0163825909083,1016.7558423805987 693.1887359857767,1018.2292962864033 691.2175084373969,1019.5042945131817 689.124159978865,1020.5669566217289 686.9314801289453,1021.4057137984706 684.663339790917,1022.0114348009041 682.3444313787845,1022.3775253660938 680,1022.5 677.6555686212155,1022.3775253660938 675.336660209083,1022.0114348009041 673.0685198710547,1021.4057137984706 670.875840021135,1020.5669566217289 668.7824915626031,1019.5042945131817 666.8112640142233,1018.2292962864033 664.9836174090917,1016.7558423805987 663.3194486671084,1015.0999737493404 661.8368749844894,1013.2797172285759 660.552036598481,1011.3148892850604 659.4789210745012,1009.2268802817338 658.6292110286334,1007.0384216086646 658.0121569432596,1004.7733382147246 657.6344764604422,1002.456289234086 657.5002812494141,1000.1124995312506 657.6110322443388,997.7674850871792 657.965523739656,995.4467752161424 658.5598965161553,993.1756346374164 659.3876798548854,990.9787884275281 660.4398619815026,988.8801528473934 661.7049881741616,986.9025749747351 663.1692854668811,985.0675839763064 664.8168125907849,983.39515672773 666.6296335208641,981.9035003325616 668.5880127389188,980.6088539082158 670.6706300869239,979.5253117966356 672.8548128717895,978.6646701243487 675.1167826946746,978.0362983823543 677.4319143177156,977.6470374239018 679.7750037499812,977.501124990625 679.8250029166521,982.5008749927083 678.00260002489,982.6143624408126 676.201942095858,982.9171209640534 674.4426322336141,983.4058545411601 672.7438234009409,984.0752425084943 671.1240099080479,984.9179974841678 669.6008260717832,985.9249447031035 668.1908542372771,987.0851218993455 666.9094442520186,988.3858986482384 665.7705463576813,989.8131138692385 664.7865593189465,991.3512299924171 663.9681954426886,992.9835021102996 663.3243639570097,994.692160273546 662.8620740197324,996.4586029458886 662.5863584122636,998.2635995122506 662.5002187495443,1000.0874996354171 662.6045928025661,1001.9104471820668 662.8983442892019,1003.7125963892303 663.3782752444927,1005.4743279178504 664.0391608357231,1007.1764624413485 664.873806243263,1008.8004694439359 665.8731249879362,1010.328668955559 667.0262378521954,1011.7444240272647 668.3205913181824,1013.0323218515767 669.7420942332848,1014.1783415560915 671.275271215358,1015.1700068435857 672.9034311275494,1015.9965218169002 674.6088487885982,1016.6488885099217 676.3729579403979,1017.1200048451476 678.1765533720564,1017.4047419514063 680,1017.5 681.8234466279434,1017.4047419514063 683.6270420596021,1017.1200048451476 685.3911512114018,1016.6488885099217 687.0965688724506,1015.9965218169002 688.724728784642,1015.1700068435857 690.2579057667152,1014.1783415560915 691.6794086818176,1013.0323218515767 692.9737621478046,1011.7444240272647 694.1268750120638,1010.328668955559 695.126193756737,1008.8004694439359 695.9608391642769,1007.1764624413485 696.6217247555073,1005.4743279178504 697.1016557107981,1003.7125963892303 697.3954071974339,1001.9104471820668 697.4997812504557,1000.0874996354171 697.4136415877364,998.2635995122506 697.1379259802676,996.4586029458886 696.6756360429903,994.692160273546 696.0318045573114,992.9835021102996 695.2134406810535,991.3512299924171 694.2294536423187,989.8131138692385 693.0905557479814,988.3858986482384 691.8091457627229,987.0851218993455 690.3991739282168,985.9249447031035 688.8759900919521,984.9179974841678 687.2561765990591,984.0752425084943 685.5573677663859,983.4058545411601 683.798057904142,982.9171209640534 681.99739997511,982.6143624408126 680.1749970833479,982.5008749927083" class="shape" />
<text x="680" y="1075" class="text">Cuts: 2</text>
<polygon points="800.2249962500188,977.501124990625 819.5601380184974,988.8801528473934 819.447963401519,1011.3148892850604 800,1022.5 780.552036598481,1011.3148892850604 780.4398619815026,988.8801528473934 799.7750037499812,977.501124990625 799.8500024999875,985.00074999375 786.9599079876684,992.586768564929 787.034691065654,1007.5432595233736 800,1015 812.965308934346,1007.5432595233736 813.0400920123316,992.586768564929 800.1499975000125,985.00074999375" class="shape" />
<text x="800" y="1075" class="text">Cuts: 2</text>
<polygon points="935.9099025766973,984.0900974233027 937.6696309448167,986.0703861405287 939.1844036979671,988.2437822938912 940.4332214110643,990.5801559054079 941.3987716166409,993.0471176265637 942.0676688090726,995.6104677546372 942.4306400089954,998.2346703461235 942.4826533154163,1000.883345854579 942.2229876633907,1003.5197754634052 941.655242820207,1006.1074101219642 940.787289481504,1008.6103772282145 939.631160159138,1010.9939779336814 938.2028823734363,1013.2251681765806 936.522256462303,1015.2730167744912 934.6125810874291,1017.1091342260007 932.500330242941,1018.7080662768072 930.2147862441398,1020.0476467942383 927.7876337842436,1021.1093050582559 925.2525206867579,1021.8783232089477 922.6445914428014,1022.3440402814858 920,1022.5 917.3554085571986,1022.3440402814858 914.7474793132421,1021.8783232089477 912.2123662157564,1021.1093050582559 909.7852137558602,1020.0476467942383 907.499669757059,1018.7080662768072 905.3874189125709,1017.1091342260007 903.477743537697,1015.2730167744912 901.7971176265637,1013.2251681765806 900.368839840862,1010.9939779336814 899.212710518496,1008.6103772282145 898.344757179793,1006.1074101219642 897.7770123366095,1003.5197754634052 897.5173466845837,1000.883345854579 897.5693599910046,998.2346703461235 897.9323311909274,995.610467754637 898.6012283833591,993.0471176265637 899.5667785889357,990.5801559054079 900.8155963020329,988.2437822938912 902.3303690551833,986.0703861405287 904.0900974233027,984.0900974233027 914.6966991411009,994.6966991411009 914.1101230183945,995.3567953801762 913.6051987673443,996.0812607646304 913.1889261963119,996.8600519684693 912.8670761277864,997.6823725421879 912.6441103969757,998.536822584879 912.5231199970016,999.4115567820412 912.5057822281946,1000.294448618193 912.5923374455365,1001.1732584878017 912.7815857265977,1002.0358033739881 913.0709035061653,1002.8701257427382 913.456279946954,1003.6646593112272 913.9323725421879,1004.4083893921935 914.4925811792324,1005.091005591497 915.1291396375236,1005.7030447420002 915.833223252353,1006.2360220922691 916.5950712519534,1006.6825489314127 917.4041220719188,1007.0364350194186 918.2491597710807,1007.2927744029826 919.1184695190663,1007.448013427162 920,1007.5 920.8815304809337,1007.448013427162 921.7508402289193,1007.2927744029826 922.5958779280812,1007.0364350194186 923.4049287480466,1006.6825489314127 924.166776747647,1006.2360220922691 924.8708603624764,1005.7030447420002 925.5074188207676,1005.091005591497 926.0676274578121,1004.4083893921935 926.543720053046,1003.6646593112272 926.9290964938347,1002.8701257427382 927.2184142734023,1002.0358033739881 927.4076625544635,1001.1732584878017 927.4942177718054,1000.294448618193 927.4768800029984,999.4115567820412 927.3558896030243,998.536822584879 927.1329238722136,997.6823725421879 926.8110738036881,996.8600519684693 926.3948012326557,996.0812607646304 925.8898769816055,995.3567953801762 925.3033008588991,994.6966991411009" class="shape" />
<text x="920" y="1075" class="text">Cuts: 1</text>
<polygon points="1025,995 1025.327785988993,998.1186753622663 1026.296818135361,1001.101049646137 1027.8647450843757,1003.8167787843871 1029.9630409046172,1006.1471723821609 1032.5,1007.9903810567665 1035.3647450843757,1009.2658477444273 1038.4320730509853,1009.9178284305241 1041.5679269490147,1009.9178284305241 1044.6352549156243,1009.2658477444273 1047.5,1007.9903810567666 1050.0369590953828,1006.1471723821609 1052.1352549156243,1003.8167787843871 1053.703181864639,1001.101049646137 1054.672214011007,998.1186753622663 1055,995 1054.672214011007,991.8813246377337 1053.703181864639,988.898950353863 1052.1352549156243,986.1832212156129 1047.5,1020 1032.5,1020" class="shape" />
<text x="1040" y="1075" class="text">Cuts: 1</text>
<polygon points="1140,985 1150,985 1150,1005 1170,1005 1170,985 1180,985 1180,1015 1140,1015" class="shape" />
<text x="1160" y="1075" class="text">Cuts: 1</text>
<text x="20" y="1090" class="title">Chapter 8: Organic &amp; Irregular</text>
<polygon points="80,1130 82.09056926535307,1130.1095620926346 84.15823381635519,1130.437047985324 86.18033988749895,1130.978869674097 88.134732861516,1131.729090847148 90,1132.6794919243112 91.75570504584947,1133.819660112501 93.38261212717717,1135.137103490452 94.86289650954788,1136.6173878728227 96.18033988749895,1138.2442949541505 97.32050807568878,1140 98.27090915285203,1141.865267138484 99.02113032590307,1143.819660112501 99.56295201467611,1145.8417661836447 99.89043790736547,1147.909430734647 100,1150 99.89043790736547,1152.090569265353 99.56295201467611,1154.1582338163553 99.02113032590307,1156.180339887499 98.27090915285203,1158.134732861516 97.32050807568878,1160 96.18033988749895,1161.7557050458495 94.8628965095479,1163.3826121271773 93.38261212717715,1164.862896509548 91.75570504584947,1166.180339887499 90,1167.3205080756888 88.134732861516,1168.270909152852 86.18033988749895,1169.021130325903 84.15823381635519,1169.562952014676 82.09056926535307,1169.8904379073654 80,1170 80.7839634745074,1130.1095620926346 81.5593376811332,1130.437047985324 82.31762745781211,1130.978869674097 83.0505248230685,1131.729090847148 83.75,1132.6794919243112 84.40838939219356,1133.819660112501 85.01847954769144,1135.137103490452 85.57358619108045,1136.6173878728227 86.06762745781211,1138.2442949541505 86.49519052838329,1140 86.85159093231951,1141.865267138484 87.13292387221365,1143.819660112501 87.33610700550354,1145.8417661836447 87.45891421526206,1147.909430734647 87.5,1150 87.45891421526206,1152.090569265353 87.33610700550354,1154.1582338163553 87.13292387221365,1156.180339887499 86.85159093231951,1158.134732861516 86.49519052838329,1160 86.06762745781211,1161.7557050458495 85.57358619108045,1163.3826121271773 85.01847954769144,1164.862896509548 84.40838939219356,1166.180339887499 83.75,1167.3205080756888 83.0505248230685,1168.270909152852 82.31762745781211,1169.021130325903 81.5593376811332,1169.562952014676 80.7839634745074,1169.8904379073654" class="shape" />
<text x="80" y="1225" class="text">Cuts: 1</text>
<polygon points="185,1155 185.0821715694759,1153.4320730509853 185.32778598899293,1151.8813246377335 185.7341522555727,1150.3647450843757 186.29681813536098,1148.898950353863 187.00961894323342,1147.5 187.86474508437578,1146.183221215613 188.8528276178391,1144.9630409046172 189.96304090461712,1143.852827617839 191.1832212156129,1142.8647450843757 192.5,1142.0096189432334 193.89895035386297,1141.296818135361 195.36474508437578,1140.7341522555728 196.88132463773363,1140.327785988993 198.4320730509852,1140.0821715694758 200,1140 201.5679269490148,1140.0821715694758 203.11867536226637,1140.327785988993 204.63525491562422,1140.7341522555728 206.101049646137,1141.296818135361 207.5,1142.0096189432334 208.81677878438708,1142.8647450843757 210.03695909538285,1143.852827617839 211.1471723821609,1144.9630409046172 212.13525491562422,1146.183221215613 212.99038105676658,1147.5 213.70318186463902,1148.898950353863 214.2658477444273,1150.3647450843757 214.67221401100707,1151.8813246377335 214.9178284305241,1153.432073050985 215,1155 200,1130" class="shape" />
<text x="200" y="1225" class="text">Cuts: 1</text>
<polygon points="340,1150 341.19958186955483,1152.6781300008981 341.05056790691407,1155.4048671994528 339.87265803784715,1157.8681419264428 338.1711446675017,1159.989671316627 336.3670697792402,1161.8913722534494 334.62059614551293,1163.729653652951 332.83000829071165,1165.508815877504 330.7867913650376,1166.9972634093863 328.3808491672815,1167.8102110633877 325.7262508074956,1167.6235878399657 323.1287840625026,1166.4016604412996 320.91243373688707,1164.5027189480068 319.2081921677633,1162.5854250972104 317.83612826497824,1161.3434128809658 316.3637410603832,1161.191254275365 314.32566999431555,1162.0585650722712 311.4955983020118,1163.4007927759187 308.0635178573315,1164.4287283048586 304.61325433779325,1164.4491159379284 301.8961079017665,1163.1532475317867 300.50379095409437,1160.7181316231095 300.6001856943305,1157.6809298490894 301.84583086899704,1154.6611983915764 303.5537930784818,1152.0776390981914 305,1150 305.73538064417465,1148.1979595030082 305.75030177777165,1146.3412993481222 305.42105362403225,1144.2277867909943 305.28074026217155,1141.9080184822951 305.7432123232356,1139.641837440088 306.92410366270684,1137.7209160196917 308.64176827419124,1136.2702563756627 310.5783618021732,1135.1538737723756 312.49436821455225,1134.0497205480365 314.3657491083684,1132.6595587865104 316.3634990641622,1130.9367945014485 318.69115633681173,1129.1965257018446 321.3822511347399,1128.0297473533933 324.18753528763864,1128.0481712698088 326.6344289675023,1129.5813271881595 328.2437394511414,1132.481161915001 328.7950443876772,1136.1412276277883 328.49495712321936,1139.7313608123948 327.94456577448597,1142.5395561561793 327.90344005200825,1144.2578146846752 328.95485415183464,1145.0770272703212 331.23293529269324,1145.5525662966104 334.34638601885877,1146.3164741413673 337.53762094511507,1147.78448324658" class="shape" />
<text x="320" y="1225" class="text">Cuts: 1</text>
<polygon points="460,1150 459.1150954868103,1152.0090774931716 458.194263932223,1153.8673101835502 457.6067799336851,1155.7207895876927 455.9748758278838,1157.112472962816 453.4591310567666,1157.7706329386826 452.1174372096534,1158.8038334632479 452.70858589563505,1161.4428621377363 453.0482618661217,1164.4915629252832 450.7166309173944,1164.750177043064 446.31430355185626,1160.9366945662277 442.67755745578546,1156.0138925099357 441.3915420835491,1154.2827261618256 441.4448403445589,1156.7974393884008 441.1654593677801,1161.0886051816478 440,1165 438.0296054697505,1168.7470516794003 435.2074896200261,1172.5469886336134 432.1210322523007,1174.248969327029 430.47545816351146,1171.3924712193425 431.31430355185626,1165.0440675473055 433.0830733486202,1159.5203327881843 432.97434367535595,1157.8027818390385 430.41424113131325,1158.6310560530294 427.846927378405,1158.8297241055263 427.4783689432334,1157.2293670613174 428.56851209860577,1155.0896263294583 429.0750844448305,1153.5497202435558 428.84983591020887,1152.3700405409825 429.27943862576205,1151.126776404858 430,1150 428.27564251685874,1148.767720372753 422.8281787233135,1146.3500167118154 416.80305012256537,1142.462854092294 415.0893011965724,1138.909042321633 419.0408689432334,1137.8992400423951 425.3825627903466,1139.3798102167389 430.3140564207032,1141.2787372283606 433.06455039396604,1142.2974028715714 434.87353902635505,1142.944031799874 436.18569644814374,1143.3934324526945 436.4767895124202,1142.086739682691 436.1084579164509,1138.0230649952362 436.4874323672281,1133.474668553282 438.13510869213945,1132.256744429503 440,1135 441.27096259016906,1137.9075987094488 442.7247830917609,1137.1809034247037 445.3789677476993,1133.4452395159092 448.6788888046942,1130.5068965880312 451.18569644814374,1130.6258054337723 452.50709659512927,1132.7854583688775 453.1384685847318,1135.4082523641066 452.60840118502506,1138.6473445808738 449.653072621595,1142.986632214487 445.0216310567666,1147.1007599576049 442.49566492585046,1148.888858386093 445.33474561142,1148.2666360764576 452.1726067453276,1147.4126325636519 458.1112993779069,1148.0964257292173" class="shape" />
<text x="440" y="1225" class="text">Cuts: 1</text>
<polygon points="560,1130 562.0905692653531,1130.1095620926346 564.1582338163552,1130.437047985324 566.1803398874989,1130.978869674097 568.134732861516,1131.729090847148 570,1132.6794919243112 571.7557050458495,1133.819660112501 573.3826121271771,1135.137103490452 574.8628965095479,1136.6173878728227 576.1803398874989,1138.2442949541505 577.3205080756887,1140 578.270909152852,1141.865267138484 579.0211303259031,1143.819660112501 579.5629520146762,1145.8417661836447 579.8904379073655,1147.909430734647 580,1150 579.8904379073655,1152.090569265353 579.5629520146762,1154.1582338163553 579.0211303259031,1156.180339887499 578.270909152852,1158.134732861516 577.3205080756887,1160 576.1803398874989,1161.7557050458495 574.8628965095479,1163.3826121271773 573.3826121271771,1164.862896509548 571.7557050458495,1166.180339887499 570,1167.3205080756888 568.134732861516,1168.270909152852 566.1803398874989,1169.021130325903 564.1582338163552,1169.562952014676 562.0905692653531,1169.8904379073654 560,1170 560.7839634745075,1130.1095620926346 561.5593376811332,1130.437047985324 562.3176274578121,1130.978869674097 563.0505248230685,1131.729090847148 563.75,1132.6794919243112 564.4083893921935,1133.819660112501 565.0184795476914,1135.137103490452 565.5735861910805,1136.6173878728227 566.0676274578121,1138.2442949541505 566.4951905283833,1140 566.8515909323195,1141.865267138484 567.1329238722136,1143.819660112501 567.3361070055035,1145.8417661836447 567.4589142152621,1147.909430734647 567.5,1150 567.4589142152621,1152.090569265353 567.3361070055035,1154.1582338163553 567.1329238722136,1156.180339887499 566.8515909323195,1158.134732861516 566.4951905283833,1160 566.0676274578121,1161.7557050458495 565.5735861910805,1163.3826121271773 565.0184795476914,1164.862896509548 564.4083893921935,1166.180339887499 563.75,1167.3205080756888 563.0505248230685,1168.270909152852 562.3176274578121,1169.021130325903 561.5593376811332,1169.562952014676 560.7839634745073,1169.8904379073654" class="shape" />
<text x="560" y="1225" class="text">Cuts: 1</text>
<polygon points="700,1150 701.1995818695548,1152.6781300008981 701.050567906914,1155.4048671994528 699.8726580378471,1157.8681419264428 698.1711446675017,1159.989671316627 696.3670697792402,1161.8913722534494 694.620596145513,1163.729653652951 692.8300082907117,1165.508815877504 690.7867913650375,1166.9972634093863 688.3808491672816,1167.8102110633877 685.7262508074956,1167.6235878399657 683.1287840625026,1166.4016604412996 680.912433736887,1164.5027189480068 679.2081921677633,1162.5854250972104 677.8361282649782,1161.3434128809658 676.3637410603832,1161.191254275365 674.3256699943156,1162.0585650722712 671.4955983020118,1163.4007927759187 668.0635178573315,1164.4287283048586 664.6132543377933,1164.4491159379284 661.8961079017665,1163.1532475317867 660.5037909540944,1160.7181316231095 660.6001856943304,1157.6809298490894 661.845830868997,1154.6611983915764 663.5537930784818,1152.0776390981914 665,1150 665.7353806441746,1148.1979595030082 665.7503017777716,1146.3412993481222 665.4210536240323,1144.2277867909943 665.2807402621715,1141.9080184822951 665.7432123232356,1139.641837440088 666.9241036627068,1137.7209160196917 668.6417682741912,1136.2702563756627 670.5783618021732,1135.1538737723756 672.4943682145522,1134.0497205480365 674.3657491083684,1132.6595587865104 676.3634990641622,1130.9367945014485 678.6911563368117,1129.1965257018446 681.3822511347398,1128.0297473533933 684.1875352876386,1128.0481712698088 686.6344289675023,1129.5813271881595 688.2437394511413,1132.481161915001 688.7950443876772,1136.1412276277883 688.4949571232194,1139.7313608123948 687.9445657744859,1142.5395561561793 687.9034400520082,1144.2578146846752 688.9548541518346,1145.0770272703212 691.2329352926932,1145.5525662966104 694.3463860188588,1146.3164741413673 697.5376209451151,1147.78448324658" class="shape" />
<text x="680" y="1225" class="text">Cuts: 1</text>
<polygon points="785,1155 785.0821715694759,1153.4320730509853 785.3277859889929,1151.8813246377335 785.7341522555727,1150.3647450843757 786.296818135361,1148.898950353863 787.0096189432334,1147.5 787.8647450843758,1146.183221215613 788.8528276178391,1144.9630409046172 789.9630409046172,1143.852827617839 791.1832212156129,1142.8647450843757 792.5,1142.0096189432334 793.898950353863,1141.296818135361 795.3647450843758,1140.7341522555728 796.8813246377337,1140.327785988993 798.4320730509852,1140.0821715694758 800,1140 801.5679269490148,1140.0821715694758 803.1186753622663,1140.327785988993 804.6352549156242,1140.7341522555728 806.101049646137,1141.296818135361 807.5,1142.0096189432334 808.8167787843871,1142.8647450843757 810.0369590953828,1143.852827617839 811.1471723821609,1144.9630409046172 812.1352549156242,1146.183221215613 812.9903810567666,1147.5 813.703181864639,1148.898950353863 814.2658477444273,1150.3647450843757 814.6722140110071,1151.8813246377335 814.9178284305241,1153.432073050985 815,1155 800,1130" class="shape" />
<text x="800" y="1225" class="text">Cuts: 1</text>
<polygon points="940,1150 939.1150954868102,1152.0090774931716 938.1942639322231,1153.8673101835502 937.6067799336852,1155.7207895876927 935.9748758278838,1157.112472962816 933.4591310567666,1157.7706329386826 932.1174372096534,1158.8038334632479 932.7085858956351,1161.4428621377363 933.0482618661217,1164.4915629252832 930.7166309173944,1164.750177043064 926.3143035518563,1160.9366945662277 922.6775574557855,1156.0138925099357 921.3915420835491,1154.2827261618256 921.4448403445589,1156.7974393884008 921.1654593677802,1161.0886051816478 920,1165 918.0296054697505,1168.7470516794003 915.2074896200261,1172.5469886336134 912.1210322523007,1174.248969327029 910.4754581635115,1171.3924712193425 911.3143035518563,1165.0440675473055 913.0830733486202,1159.5203327881843 912.974343675356,1157.8027818390385 910.4142411313132,1158.6310560530294 907.846927378405,1158.8297241055263 907.4783689432334,1157.2293670613174 908.5685120986058,1155.0896263294583 909.0750844448305,1153.5497202435558 908.8498359102089,1152.3700405409825 909.279438625762,1151.126776404858 910,1150 908.2756425168587,1148.767720372753 902.8281787233135,1146.3500167118154 896.8030501225654,1142.462854092294 895.0893011965725,1138.909042321633 899.0408689432335,1137.8992400423951 905.3825627903466,1139.3798102167389 910.3140564207032,1141.2787372283606 913.064550393966,1142.2974028715714 914.873539026355,1142.944031799874 916.1856964481437,1143.3934324526945 916.4767895124203,1142.086739682691 916.1084579164509,1138.0230649952362 916.4874323672282,1133.474668553282 918.1351086921394,1132.256744429503 920,1135 921.270962590169,1137.9075987094488 922.724783091761,1137.1809034247037 925.3789677476993,1133.4452395159092 928.6788888046942,1130.5068965880312 931.1856964481437,1130.6258054337723 932.5070965951293,1132.7854583688775 933.1384685847318,1135.4082523641066 932.6084011850251,1138.6473445808738 929.653072621595,1142.986632214487 925.0216310567666,1147.1007599576049 922.4956649258505,1148.888858386093 925.33474561142,1148.2666360764576 932.1726067453276,1147.4126325636519 938.1112993779069,1148.0964257292173" class="shape" />
<text x="920" y="1225" class="text">Cuts: 1</text>
<polygon points="1060,1150 1061.1995818695548,1152.6781300008981 1061.050567906914,1155.4048671994528 1059.872658037847,1157.8681419264428 1058.1711446675017,1159.989671316627 1056.3670697792402,1161.8913722534494 1054.620596145513,1163.729653652951 1052.8300082907117,1165.508815877504 1050.7867913650375,1166.9972634093863 1048.3808491672814,1167.8102110633877 1045.7262508074955,1167.6235878399657 1043.1287840625025,1166.4016604412996 1040.9124337368871,1164.5027189480068 1039.2081921677632,1162.5854250972104 1037.8361282649782,1161.3434128809658 1036.363741060383,1161.191254275365 1034.3256699943156,1162.0585650722712 1031.4955983020118,1163.4007927759187 1028.0635178573314,1164.4287283048586 1024.6132543377933,1164.4491159379284 1021.8961079017665,1163.1532475317867 1020.5037909540944,1160.7181316231095 1020.6001856943304,1157.6809298490894 1021.845830868997,1154.6611983915764 1023.5537930784818,1152.0776390981914 1025,1150 1025.7353806441747,1148.1979595030082 1025.7503017777717,1146.3412993481222 1025.4210536240323,1144.2277867909943 1025.2807402621715,1141.9080184822951 1025.7432123232356,1139.641837440088 1026.9241036627068,1137.7209160196917 1028.6417682741912,1136.2702563756627 1030.5783618021733,1135.1538737723756 1032.4943682145522,1134.0497205480365 1034.3657491083684,1132.6595587865104 1036.3634990641622,1130.9367945014485 1038.6911563368117,1129.1965257018446 1041.3822511347398,1128.0297473533933 1044.1875352876386,1128.0481712698088 1046.6344289675023,1129.5813271881595 1048.2437394511414,1132.481161915001 1048.795044387677,1136.1412276277883 1048.4949571232194,1139.7313608123948 1047.944565774486,1142.5395561561793 1047.9034400520081,1144.2578146846752 1048.9548541518345,1145.0770272703212 1051.2329352926931,1145.5525662966104 1054.3463860188588,1146.3164741413673 1057.5376209451151,1147.78448324658" class="shape" />
<text x="1040" y="1225" class="text">Cuts: 1</text>
<polygon points="1180,1150 1179.1150954868103,1152.0090774931716 1178.194263932223,1153.8673101835502 1177.6067799336852,1155.7207895876927 1175.9748758278838,1157.112472962816 1173.4591310567666,1157.7706329386826 1172.1174372096534,1158.8038334632479 1172.708585895635,1161.4428621377363 1173.0482618661217,1164.4915629252832 1170.7166309173945,1164.750177043064 1166.3143035518563,1160.9366945662277 1162.6775574557855,1156.0138925099357 1161.3915420835492,1154.2827261618256 1161.4448403445588,1156.7974393884008 1161.1654593677802,1161.0886051816478 1160,1165 1158.0296054697505,1168.7470516794003 1155.207489620026,1172.5469886336134 1152.1210322523007,1174.248969327029 1150.4754581635113,1171.3924712193425 1151.3143035518563,1165.0440675473055 1153.0830733486202,1159.5203327881843 1152.974343675356,1157.8027818390385 1150.4142411313132,1158.6310560530294 1147.846927378405,1158.8297241055263 1147.4783689432334,1157.2293670613174 1148.5685120986059,1155.0896263294583 1149.0750844448305,1153.5497202435558 1148.8498359102089,1152.3700405409825 1149.2794386257622,1151.126776404858 1150,1150 1148.2756425168589,1148.767720372753 1142.8281787233134,1146.3500167118154 1136.8030501225653,1142.462854092294 1135.0893011965725,1138.909042321633 1139.0408689432334,1137.8992400423951 1145.3825627903466,1139.3798102167389 1150.3140564207033,1141.2787372283606 1153.064550393966,1142.2974028715714 1154.873539026355,1142.944031799874 1156.1856964481437,1143.3934324526945 1156.4767895124203,1142.086739682691 1156.1084579164508,1138.0230649952362 1156.4874323672282,1133.474668553282 1158.1351086921395,1132.256744429503 1160,1135 1161.2709625901691,1137.9075987094488 1162.7247830917609,1137.1809034247037 1165.3789677476993,1133.4452395159092 1168.6788888046942,1130.5068965880312 1171.1856964481437,1130.6258054337723 1172.5070965951293,1132.7854583688775 1173.1384685847318,1135.4082523641066 1172.608401185025,1138.6473445808738 1169.653072621595,1142.986632214487 1165.0216310567666,1147.1007599576049 1162.4956649258504,1148.888858386093 1165.33474561142,1148.2666360764576 1172.1726067453276,1147.4126325636519 1178.111299377907,1148.0964257292173" class="shape" />
<text x="1160" y="1225" class="text">Cuts: 1</text>
<text x="20" y="1240" class="title">Chapter 9: The Gauntlet</text>
<polygon points="80,1280 97.32050807568878,1290 97.32050807568878,1310 80,1320 62.67949192431123,1310 62.67949192431122,1290" class="shape" />
<text x="80" y="1375" class="text">Cuts: 6</text>
<polygon points="200,1277.5 206.25,1289.1746824526945 219.48557158514987,1288.75 212.5,1300 219.48557158514987,1311.25 206.25,1310.8253175473055 200,1322.5 193.75,1310.8253175473055 180.51442841485013,1311.25 187.5,1300 180.51442841485013,1288.75 193.75,1289.1746824526945" class="shape" />
<text x="200" y="1375" class="text">Cuts: 6</text>
<polygon points="342.5,1300 336.6622205034864,1304.4646285280185 336.8874953737966,1309.75 335.90990257669733,1315.9099025766973 329.75,1316.8874953737966 324.46462852801847,1316.6622205034864 320,1322.5 315.53537147198153,1316.6622205034864 310.25,1316.8874953737966 304.09009742330267,1315.9099025766973 303.1125046262035,1309.75 303.3377794965136,1304.4646285280185 297.5,1300 303.3377794965136,1295.5353714719815 303.1125046262034,1290.25 304.09009742330267,1284.0900974233027 310.25,1283.1125046262034 315.5353714719815,1283.3377794965136 320,1277.5 324.46462852801847,1283.3377794965136 329.75,1283.1125046262034 335.90990257669733,1284.0900974233027 336.8874953737965,1290.25 336.6622205034864,1295.5353714719815" class="shape" />
<text x="320" y="1375" class="text">Cuts: 6</text>
<polygon points="447.5,1300 460.7238723650649,1308.7619127019445 458.5700513354678,1312.7044556513883 443.75,1306.4951905283833 442.77389719690683,1322.328356283905 438.2826443323788,1322.4343640317904 436.25,1306.4951905283833 422.05002483184194,1313.5664435819601 419.7125929969111,1309.729908380402 432.5,1300 419.2761276349351,1291.2380872980555 421.4299486645322,1287.2955443486117 436.25,1293.5048094716167 437.22610280309317,1277.671643716095 441.7173556676211,1277.5656359682096 443.75,1293.5048094716167 457.94997516815806,1286.4335564180399 460.2874070030889,1290.270091619598" class="shape" />
<text x="440" y="1375" class="text">Cuts: 6</text>
<polygon points="560,1277.5 563.8822856765378,1285.511112605664 571.25,1280.51442841485 570.6066017177982,1289.3933982822018 579.4855715851498,1288.75 574.4888873943361,1296.1177143234622 582.5,1300 574.4888873943361,1303.8822856765378 579.4855715851498,1311.25 570.6066017177982,1310.6066017177982 571.25,1319.48557158515 563.8822856765378,1314.488887394336 560,1322.5 556.1177143234622,1314.488887394336 548.75,1319.48557158515 549.3933982822018,1310.6066017177982 540.5144284148502,1311.25 545.5111126056639,1303.8822856765378 537.5,1300 545.5111126056639,1296.1177143234622 540.5144284148502,1288.75 549.3933982822018,1289.3933982822018 548.75,1280.51442841485 556.1177143234622,1285.511112605664" class="shape" />
<text x="560" y="1375" class="text">Cuts: 6</text>
<polygon points="683.3623579806559,1277.752650746439 685.4745247992767,1286.034700926149 700.9479486107765,1291.788212801085 694.8315661690407,1297.758428012896 697.5855906301206,1314.0355620546459 689.3570413697639,1311.723727086747 676.6376420193441,1322.247349253561 674.5254752007233,1313.965299073851 659.0520513892235,1308.211787198915 665.1684338309593,1302.241571987104 662.4144093698794,1285.9644379453541 670.6429586302361,1288.276272913253" class="shape" />
<text x="680" y="1375" class="text">Cuts: 6</text>
<polygon points="822.5,1300 821.733331091504,1305.8234285148067 810.8253175473055,1306.25 808.8388347648319,1308.8388347648317 811.25,1319.48557158515 805.8234285148067,1321.733331091504 800,1312.5 796.7647619362185,1312.0740728286135 788.75,1319.48557158515 784.0900974233027,1315.9099025766973 789.1746824526945,1306.25 787.9259271713867,1303.2352380637815 777.5,1300 778.266668908496,1294.1765714851933 789.1746824526945,1293.75 791.1611652351681,1291.1611652351683 788.75,1280.51442841485 794.1765714851932,1278.266668908496 800,1287.5 803.2352380637815,1287.9259271713865 811.25,1280.51442841485 815.9099025766973,1284.0900974233027 810.8253175473055,1293.75 812.0740728286133,1296.7647619362185" class="shape" />
<text x="800" y="1375" class="text">Cuts: 6</text>
<polygon points="927.3504993338094,1298.5099800190371 942.5,1300 926.9079574550217,1302.9206375673148 924.965644822565,1305.620709163098 931.25,1319.48557158515 920.9246323989689,1307.4427854279684 917.6151454887557,1307.110729144061 908.75,1319.48557158515 914.0166749439474,1304.5221478606534 912.6495006661906,1301.4900199809629 897.5,1300 913.0920425449783,1297.0793624326852 915.034355177435,1294.379290836902 908.75,1280.51442841485 919.0753676010311,1292.5572145720316 922.3848545112443,1292.889270855939 931.25,1280.51442841485 925.9833250560526,1295.4778521393466" class="shape" />
<text x="920" y="1375" class="text">Cuts: 6</text>
<polygon points="1062.5,1300 1053.63236684389,1301.7947351430257 1056.9037019600587,1304.529333289294 1060.7872894815039,1308.6103772282145 1055.1554445662277,1308.75 1050.9086084290045,1308.3704696488699 1055.9099025766973,1315.9099025766973 1048.3704696488699,1310.9086084290045 1048.75,1315.1554445662277 1048.6103772282145,1320.7872894815039 1044.529333289294,1316.9037019600587 1041.7947351430257,1313.63236684389 1040,1322.5 1038.2052648569743,1313.63236684389 1035.470666710706,1316.9037019600587 1031.3896227717855,1320.7872894815039 1031.25,1315.1554445662277 1031.6295303511301,1310.9086084290045 1024.0900974233027,1315.9099025766973 1029.0913915709955,1308.3704696488699 1024.8445554337723,1308.75 1019.212710518496,1308.6103772282145 1023.0962980399413,1304.529333289294 1026.36763315611,1301.7947351430257 1017.5,1300 1026.36763315611,1298.2052648569743 1023.0962980399413,1295.470666710706 1019.212710518496,1291.3896227717855 1024.8445554337723,1291.25 1029.0913915709955,1291.6295303511301 1024.0900974233027,1284.0900974233027 1031.6295303511301,1289.0913915709955 1031.25,1284.8445554337723 1031.3896227717855,1279.2127105184961 1035.470666710706,1283.0962980399413 1038.2052648569743,1286.36763315611 1040,1277.5 1041.7947351430257,1286.36763315611 1044.529333289294,1283.0962980399413 1048.6103772282145,1279.2127105184961 1048.75,1284.8445554337723 1048.3704696488699,1289.0913915709955 1055.9099025766973,1284.0900974233027 1050.9086084290045,1291.6295303511301 1055.1554445662277,1291.25 1060.7872894815039,1291.3896227717855 1056.9037019600587,1295.470666710706 1053.63236684389,1298.2052648569743" class="shape" />
<text x="1040" y="1375" class="text">Cuts: 6</text>
<polygon points="1160,1280 1162.090569265353,1280.1095620926346 1164.1582338163553,1280.437047985324 1166.180339887499,1280.978869674097 1168.134732861516,1281.729090847148 1170,1282.6794919243112 1171.7557050458495,1283.819660112501 1173.3826121271773,1285.137103490452 1174.862896509548,1286.6173878728227 1176.180339887499,1288.2442949541505 1177.3205080756888,1290 1178.270909152852,1291.865267138484 1179.021130325903,1293.819660112501 1179.562952014676,1295.8417661836447 1179.8904379073654,1297.909430734647 1180,1300 1179.8904379073654,1302.090569265353 1179.562952014676,1304.1582338163553 1179.021130325903,1306.180339887499 1178.270909152852,1308.134732861516 1177.3205080756888,1310 1176.180339887499,1311.7557050458495 1174.862896509548,1313.3826121271773 1173.3826121271773,1314.862896509548 1171.7557050458495,1316.180339887499 1170,1317.3205080756888 1168.134732861516,1318.270909152852 1166.180339887499,1319.021130325903 1164.1582338163553,1319.562952014676 1162.090569265353,1319.8904379073654 1160,1320 1157.909430734647,1319.8904379073654 1155.8417661836447,1319.562952014676 1153.819660112501,1319.021130325903 1151.8652671384841,1318.270909152852 1150,1317.3205080756888 1148.2442949541505,1316.180339887499 1146.6173878728227,1314.862896509548 1145.137103490452,1313.3826121271773 1143.819660112501,1311.7557050458495 1142.6794919243112,1310 1141.729090847148,1308.134732861516 1140.978869674097,1306.180339887499 1140.437047985324,1304.1582338163553 1140.1095620926346,1302.090569265353 1140,1300 1140.1095620926346,1297.909430734647 1140.437047985324,1295.8417661836447 1140.978869674097,1293.819660112501 1141.729090847148,1291.8652671384841 1142.6794919243112,1290 1143.819660112501,1288.2442949541505 1145.137103490452,1286.6173878728227 1146.6173878728227,1285.137103490452 1148.2442949541505,1283.819660112501 1150,1282.6794919243112 1151.865267138484,1281.729090847148 1153.819660112501,1280.978869674097 1155.8417661836447,1280.437047985324 1157.909430734647,1280.1095620926346" class="shape" />
<text x="1160" y="1375" class="text">Cuts: 6</text>
<text x="20" y="1390" class="title">Chapter 10: Absolute Perfection</text>
<polygon points="102.5,1450 95.42536326341906,1451.5192656751083 98.14452768745977,1453.6091709572984 101.53115755397471,1456.5314052382255 97.0917713514588,1457.0796434987542 93.6697795973995,1457.306649420803 98.70806627680727,1462.5003302429411 91.98166202712243,1459.8330959045365 93.08147545195114,1463.081475451951 94.27384889368203,1467.3927352006615 90.27804931086264,1465.3821878275971 87.30664942080297,1463.6697795973996 88.61037722821452,1470.7872894815039 84.49941249744417,1464.8325752038493 83.60917095729837,1468.1445276874597 82.20538565741512,1472.3916563501243 80,1468.5 78.48073432489181,1465.425363263419 75.61046775463711,1472.0676688090728 75.50058750255583,1464.8325752038493 72.92035650124583,1467.0917713514589 69.39357342141506,1469.843228447838 69.72195068913736,1465.3821878275971 70.1669040954635,1461.9816620271224 64.09009742330268,1465.9099025766973 68.01833797287757,1459.8330959045365 64.6178121724029,1460.2780493108626 60.15677155216201,1460.606426578585 62.9082286485412,1457.0796434987542 65.16742479615077,1454.4994124974442 57.932331190927314,1454.389532245363 64.57463673658094,1451.5192656751083 57.5,1450 64.57463673658094,1448.4807343248917 61.855472312540236,1446.3908290427016 58.4688424460253,1443.4685947617745 62.9082286485412,1442.9203565012458 66.3302204026005,1442.693350579197 61.29193372319273,1437.4996697570589 68.01833797287757,1440.1669040954635 66.91852454804886,1436.918524548049 65.72615110631797,1432.6072647993385 69.72195068913736,1434.6178121724029 72.69335057919703,1436.3302204026004 71.38962277178547,1429.2127105184961 75.50058750255583,1435.1674247961507 76.39082904270163,1431.8554723125403 77.7946143425849,1427.6083436498757 80,1431.5 81.51926567510819,1434.574636736581 84.38953224536289,1427.9323311909272 84.49941249744415,1435.1674247961507 87.07964349875417,1432.9082286485411 90.60642657858494,1430.156771552162 90.27804931086263,1434.6178121724029 89.8330959045365,1438.0183379728776 95.90990257669732,1434.0900974233027 91.98166202712241,1440.1669040954635 95.3821878275971,1439.7219506891374 99.84322844783799,1439.393573421415 97.0917713514588,1442.9203565012458 94.83257520384923,1445.5005875025558 102.06766880907269,1445.610467754637 95.42536326341906,1448.4807343248917" class="shape" />
<text x="80" y="1525" class="text">Cuts: 8</text>
<polygon points="205.56658908322677,1428.1994705115105 200.11799114005007,1440.0006961196857 215.72107230274827,1433.9034821886296 205.10183526486205,1441.3993443895124 221.66310689459706,1443.9205428142589 208.71864675053757,1445.1025313845478 221.8005294884895,1455.5665890832267 209.99930388031436,1450.11799114005 216.0965178113703,1465.7210723027483 208.6006556104875,1455.101835264862 206.07945718574126,1471.6631068945971 204.8974686154523,1458.7186467505376 194.43341091677323,1471.8005294884895 199.88200885994993,1459.9993038803143 184.27892769725173,1466.0965178113704 194.89816473513798,1458.6006556104876 178.33689310540294,1456.0794571857411 191.28135324946243,1454.8974686154522 178.1994705115105,1444.4334109167733 190.00069611968564,1449.88200885995 183.90348218862968,1434.2789276972517 191.3993443895125,1444.898164735138 193.92054281425874,1428.3368931054029 195.10253138454766,1441.2813532494624" class="shape" />
<text x="200" y="1525" class="text">Cuts: 6</text>
<polygon points="342.5,1450 335.42536326341906,1451.5192656751083 338.14452768745974,1453.6091709572984 341.5311575539747,1456.5314052382255 337.0917713514588,1457.0796434987542 333.6697795973995,1457.306649420803 338.70806627680724,1462.5003302429411 331.9816620271224,1459.8330959045365 333.0814754519511,1463.081475451951 334.27384889368204,1467.3927352006615 330.2780493108626,1465.3821878275971 327.30664942080296,1463.6697795973996 328.61037722821453,1470.7872894815039 324.49941249744415,1464.8325752038493 323.6091709572984,1468.1445276874597 322.2053856574151,1472.3916563501243 320,1468.5 318.4807343248918,1465.425363263419 315.6104677546371,1472.0676688090728 315.50058750255585,1464.8325752038493 312.92035650124586,1467.0917713514589 309.39357342141506,1469.843228447838 309.7219506891374,1465.3821878275971 310.1669040954635,1461.9816620271224 304.09009742330267,1465.9099025766973 308.0183379728776,1459.8330959045365 304.6178121724029,1460.2780493108626 300.156771552162,1460.606426578585 302.9082286485412,1457.0796434987542 305.1674247961508,1454.4994124974442 297.9323311909273,1454.389532245363 304.57463673658094,1451.5192656751083 297.5,1450 304.57463673658094,1448.4807343248917 301.85547231254026,1446.3908290427016 298.4688424460253,1443.4685947617745 302.9082286485412,1442.9203565012458 306.3302204026005,1442.693350579197 301.29193372319276,1437.4996697570589 308.0183379728776,1440.1669040954635 306.9185245480489,1436.918524548049 305.72615110631796,1432.6072647993385 309.7219506891374,1434.6178121724029 312.69335057919704,1436.3302204026004 311.38962277178547,1429.2127105184961 315.50058750255585,1435.1674247961507 316.3908290427016,1431.8554723125403 317.7946143425849,1427.6083436498757 320,1431.5 321.51926567510816,1434.574636736581 324.3895322453629,1427.9323311909272 324.49941249744415,1435.1674247961507 327.07964349875414,1432.9082286485411 330.60642657858494,1430.156771552162 330.2780493108626,1434.6178121724029 329.8330959045365,1438.0183379728776 335.90990257669733,1434.0900974233027 331.9816620271224,1440.1669040954635 335.3821878275971,1439.7219506891374 339.843228447838,1439.393573421415 337.0917713514588,1442.9203565012458 334.8325752038492,1445.5005875025558 342.0676688090727,1445.610467754637 335.42536326341906,1448.4807343248917" class="shape" />
<text x="320" y="1525" class="text">Cuts: 8</text>
<polygon points="445.56658908322675,1428.1994705115105 440.1179911400501,1440.0006961196857 455.72107230274827,1433.9034821886296 445.101835264862,1441.3993443895124 461.6631068945971,1443.9205428142589 448.7186467505376,1445.1025313845478 461.80052948848953,1455.5665890832267 449.99930388031436,1450.11799114005 456.0965178113703,1465.7210723027483 448.6006556104875,1455.101835264862 446.07945718574126,1471.6631068945971 444.89746861545234,1458.7186467505376 434.43341091677325,1471.8005294884895 439.8820088599499,1459.9993038803143 424.27892769725173,1466.0965178113704 434.898164735138,1458.6006556104876 418.3368931054029,1456.0794571857411 431.2813532494624,1454.8974686154522 418.19947051151047,1444.4334109167733 430.00069611968564,1449.88200885995 423.9034821886297,1434.2789276972517 431.3993443895125,1444.898164735138 433.92054281425874,1428.3368931054029 435.10253138454766,1441.2813532494624" class="shape" />
<text x="440" y="1525" class="text">Cuts: 6</text>
<polygon points="582.5,1450 575.4253632634191,1451.5192656751083 578.1445276874598,1453.6091709572984 581.5311575539747,1456.5314052382255 577.0917713514588,1457.0796434987542 573.6697795973995,1457.306649420803 578.7080662768072,1462.5003302429411 571.9816620271224,1459.8330959045365 573.0814754519512,1463.081475451951 574.273848893682,1467.3927352006615 570.2780493108627,1465.3821878275971 567.306649420803,1463.6697795973996 568.6103772282145,1470.7872894815039 564.4994124974442,1464.8325752038493 563.6091709572984,1468.1445276874597 562.2053856574151,1472.3916563501243 560,1468.5 558.4807343248918,1465.425363263419 555.6104677546372,1472.0676688090728 555.5005875025558,1464.8325752038493 552.9203565012458,1467.0917713514589 549.393573421415,1469.843228447838 549.7219506891373,1465.3821878275971 550.1669040954635,1461.9816620271224 544.0900974233027,1465.9099025766973 548.0183379728776,1459.8330959045365 544.6178121724029,1460.2780493108626 540.156771552162,1460.606426578585 542.9082286485412,1457.0796434987542 545.1674247961507,1454.4994124974442 537.9323311909274,1454.389532245363 544.5746367365809,1451.5192656751083 537.5,1450 544.5746367365809,1448.4807343248917 541.8554723125402,1446.3908290427016 538.4688424460253,1443.4685947617745 542.9082286485412,1442.9203565012458 546.3302204026005,1442.693350579197 541.2919337231928,1437.4996697570589 548.0183379728776,1440.1669040954635 546.9185245480488,1436.918524548049 545.726151106318,1432.6072647993385 549.7219506891373,1434.6178121724029 552.693350579197,1436.3302204026004 551.3896227717854,1429.2127105184961 555.5005875025558,1435.1674247961507 556.3908290427016,1431.8554723125403 557.7946143425849,1427.6083436498757 560,1431.5 561.5192656751082,1434.574636736581 564.389532245363,1427.9323311909272 564.4994124974442,1435.1674247961507 567.0796434987542,1432.9082286485411 570.606426578585,1430.156771552162 570.2780493108627,1434.6178121724029 569.8330959045365,1438.0183379728776 575.9099025766973,1434.0900974233027 571.9816620271224,1440.1669040954635 575.3821878275971,1439.7219506891374 579.843228447838,1439.393573421415 577.0917713514588,1442.9203565012458 574.8325752038493,1445.5005875025558 582.0676688090726,1445.610467754637 575.4253632634191,1448.4807343248917" class="shape" />
<text x="560" y="1525" class="text">Cuts: 8</text>
<polygon points="685.5665890832267,1428.1994705115105 680.1179911400501,1440.0006961196857 695.7210723027482,1433.9034821886296 685.1018352648621,1441.3993443895124 701.663106894597,1443.9205428142589 688.7186467505376,1445.1025313845478 701.8005294884895,1455.5665890832267 689.9993038803143,1450.11799114005 696.0965178113703,1465.7210723027483 688.6006556104875,1455.101835264862 686.0794571857413,1471.6631068945971 684.8974686154523,1458.7186467505376 674.4334109167733,1471.8005294884895 679.8820088599499,1459.9993038803143 664.2789276972518,1466.0965178113704 674.8981647351379,1458.6006556104876 658.336893105403,1456.0794571857411 671.2813532494624,1454.8974686154522 658.1994705115105,1444.4334109167733 670.0006961196857,1449.88200885995 663.9034821886297,1434.2789276972517 671.3993443895125,1444.898164735138 673.9205428142587,1428.3368931054029 675.1025313845477,1441.2813532494624" class="shape" />
<text x="680" y="1525" class="text">Cuts: 6</text>
<polygon points="822.5,1450 815.4253632634191,1451.5192656751083 818.1445276874598,1453.6091709572984 821.5311575539747,1456.5314052382255 817.0917713514588,1457.0796434987542 813.6697795973995,1457.306649420803 818.7080662768072,1462.5003302429411 811.9816620271224,1459.8330959045365 813.0814754519512,1463.081475451951 814.273848893682,1467.3927352006615 810.2780493108627,1465.3821878275971 807.306649420803,1463.6697795973996 808.6103772282145,1470.7872894815039 804.4994124974442,1464.8325752038493 803.6091709572984,1468.1445276874597 802.2053856574151,1472.3916563501243 800,1468.5 798.4807343248918,1465.425363263419 795.6104677546372,1472.0676688090728 795.5005875025558,1464.8325752038493 792.9203565012458,1467.0917713514589 789.393573421415,1469.843228447838 789.7219506891373,1465.3821878275971 790.1669040954635,1461.9816620271224 784.0900974233027,1465.9099025766973 788.0183379728776,1459.8330959045365 784.6178121724029,1460.2780493108626 780.156771552162,1460.606426578585 782.9082286485412,1457.0796434987542 785.1674247961507,1454.4994124974442 777.9323311909274,1454.389532245363 784.5746367365809,1451.5192656751083 777.5,1450 784.5746367365809,1448.4807343248917 781.8554723125402,1446.3908290427016 778.4688424460253,1443.4685947617745 782.9082286485412,1442.9203565012458 786.3302204026005,1442.693350579197 781.2919337231928,1437.4996697570589 788.0183379728776,1440.1669040954635 786.9185245480488,1436.918524548049 785.726151106318,1432.6072647993385 789.7219506891373,1434.6178121724029 792.693350579197,1436.3302204026004 791.3896227717854,1429.2127105184961 795.5005875025558,1435.1674247961507 796.3908290427016,1431.8554723125403 797.7946143425849,1427.6083436498757 800,1431.5 801.5192656751082,1434.574636736581 804.389532245363,1427.9323311909272 804.4994124974442,1435.1674247961507 807.0796434987542,1432.9082286485411 810.606426578585,1430.156771552162 810.2780493108627,1434.6178121724029 809.8330959045365,1438.0183379728776 815.9099025766973,1434.0900974233027 811.9816620271224,1440.1669040954635 815.3821878275971,1439.7219506891374 819.843228447838,1439.393573421415 817.0917713514588,1442.9203565012458 814.8325752038493,1445.5005875025558 822.0676688090726,1445.610467754637 815.4253632634191,1448.4807343248917" class="shape" />
<text x="800" y="1525" class="text">Cuts: 8</text>
<polygon points="922.5,1450 940.723872365065,1458.7619127019445 938.5700513354677,1462.7044556513883 921.7677669529663,1451.7677669529664 928.4583827940723,1470.8495985694915 924.1476024839111,1472.114415968672 920,1452.5 911.2380872980553,1470.7238723650648 907.2955443486117,1468.5700513354677 918.2322330470337,1451.7677669529664 899.1504014305085,1458.4583827940723 897.885584031328,1454.1476024839112 917.5,1450 899.276127634935,1441.2380872980555 901.4299486645323,1437.2955443486117 918.2322330470337,1448.2322330470336 911.5416172059277,1429.1504014305085 915.8523975160889,1427.885584031328 920,1447.5 928.7619127019447,1429.2761276349352 932.7044556513882,1431.4299486645323 921.7677669529663,1448.2322330470336 940.8495985694915,1441.5416172059277 942.114415968672,1445.8523975160888" class="shape" />
<text x="920" y="1525" class="text">Cuts: 8</text>
<polygon points="1062.5,1450 1055.425363263419,1451.5192656751083 1058.1445276874597,1453.6091709572984 1061.5311575539747,1456.5314052382255 1057.0917713514589,1457.0796434987542 1053.6697795973996,1457.306649420803 1058.7080662768074,1462.5003302429411 1051.9816620271224,1459.8330959045365 1053.081475451951,1463.081475451951 1054.273848893682,1467.3927352006615 1050.2780493108626,1465.3821878275971 1047.306649420803,1463.6697795973996 1048.6103772282145,1470.7872894815039 1044.4994124974442,1464.8325752038493 1043.6091709572984,1468.1445276874597 1042.205385657415,1472.3916563501243 1040,1468.5 1038.4807343248917,1465.425363263419 1035.610467754637,1472.0676688090728 1035.5005875025558,1464.8325752038493 1032.9203565012458,1467.0917713514589 1029.393573421415,1469.843228447838 1029.7219506891374,1465.3821878275971 1030.1669040954635,1461.9816620271224 1024.0900974233027,1465.9099025766973 1028.0183379728776,1459.8330959045365 1024.6178121724029,1460.2780493108626 1020.156771552162,1460.606426578585 1022.9082286485412,1457.0796434987542 1025.1674247961507,1454.4994124974442 1017.9323311909274,1454.389532245363 1024.574636736581,1451.5192656751083 1017.5,1450 1024.574636736581,1448.4807343248917 1021.8554723125402,1446.3908290427016 1018.4688424460253,1443.4685947617745 1022.9082286485412,1442.9203565012458 1026.3302204026004,1442.693350579197 1021.2919337231928,1437.4996697570589 1028.0183379728776,1440.1669040954635 1026.918524548049,1436.918524548049 1025.726151106318,1432.6072647993385 1029.7219506891374,1434.6178121724029 1032.693350579197,1436.3302204026004 1031.3896227717855,1429.2127105184961 1035.5005875025558,1435.1674247961507 1036.3908290427016,1431.8554723125403 1037.794614342585,1427.6083436498757 1040,1431.5 1041.5192656751083,1434.574636736581 1044.389532245363,1427.9323311909272 1044.4994124974442,1435.1674247961507 1047.0796434987542,1432.9082286485411 1050.606426578585,1430.156771552162 1050.2780493108626,1434.6178121724029 1049.8330959045365,1438.0183379728776 1055.9099025766973,1434.0900974233027 1051.9816620271224,1440.1669040954635 1055.3821878275971,1439.7219506891374 1059.8432284478379,1439.393573421415 1057.0917713514589,1442.9203565012458 1054.8325752038493,1445.5005875025558 1062.0676688090728,1445.610467754637 1055.425363263419,1448.4807343248917" class="shape" />
<text x="1040" y="1525" class="text">Cuts: 8</text>
<polygon points="1160,1427.5 1161.2940952255126,1445.1703708685548 1171.25,1430.51442841485 1163.5355339059327,1446.4644660940673 1179.48557158515,1438.75 1164.8296291314452,1448.7059047744874 1182.5,1450 1164.8296291314452,1451.2940952255126 1179.48557158515,1461.25 1163.5355339059327,1453.5355339059327 1171.25,1469.48557158515 1161.2940952255126,1454.8296291314452 1160,1472.5 1158.7059047744874,1454.8296291314452 1148.75,1469.48557158515 1156.4644660940673,1453.5355339059327 1140.51442841485,1461.25 1155.1703708685548,1451.2940952255126 1137.5,1450 1155.1703708685548,1448.7059047744874 1140.51442841485,1438.75 1156.4644660940673,1446.4644660940673 1148.75,1430.51442841485 1158.7059047744874,1445.1703708685548" class="shape" />
<text x="1160" y="1525" class="text">Cuts: 6</text>
</svg>