<svg xmlns="http://www.w3.org/2000/svg" viewBox="0 0 1920 1080" role="img" aria-label="Geometry Slicer gameplay thumbnail">
  <defs>
    <linearGradient id="bg" x1="0" x2="1" y1="0" y2="1">
      <stop offset="0" stop-color="#10131c"/>
      <stop offset=".58" stop-color="#14233e"/>
      <stop offset="1" stop-color="#263e71"/>
    </linearGradient>
    <linearGradient id="shape" x1="0" x2="1" y1="0" y2="1">
      <stop offset="0" stop-color="#68d8ff"/>
      <stop offset="1" stop-color="#4488ff"/>
    </linearGradient>
  </defs>
  <rect width="1920" height="1080" fill="url(#bg)"/>
  <g stroke="#ffffff" stroke-opacity=".08" stroke-width="3">
    <path d="M0 180h1920M0 360h1920M0 540h1920M0 720h1920M0 900h1920"/>
    <path d="M240 0v1080M480 0v1080M720 0v1080M960 0v1080M1200 0v1080M1440 0v1080M1680 0v1080"/>
  </g>
  <g transform="translate(1050 540)">
    <path d="M0-310 300-180 260 175 0 320-292 172-308-172z" fill="url(#shape)" stroke="#fff" stroke-width="22" stroke-linejoin="round"/>
    <path d="M-410 290 390-300" stroke="#00ff99" stroke-width="32" stroke-linecap="round"/>
    <circle cx="0" cy="0" r="28" fill="#fff"/>
    <circle cx="0" cy="0" r="12" fill="#10131c"/>
    <text x="-128" y="385" font-family="Arial, sans-serif" font-size="56" font-weight="700" fill="#ffffff">16.7%</text>
    <text x="146" y="-330" font-family="Arial, sans-serif" font-size="56" font-weight="700" fill="#ffffff">16.7%</text>
  </g>
  <text x="120" y="300" font-family="Arial, sans-serif" font-size="118" font-weight="800" fill="#ffffff">GEOMETRY</text>
  <text x="120" y="430" font-family="Arial, sans-serif" font-size="118" font-weight="800" fill="#70d6ff">SLICER</text>
  <text x="124" y="520" font-family="Arial, sans-serif" font-size="42" fill="#d8e4ff">Slice shapes into perfectly equal pieces.</text>
  <rect x="124" y="610" width="420" height="94" rx="28" fill="#4488ff"/>
  <text x="186" y="673" font-family="Arial, sans-serif" font-size="40" font-weight="700" fill="#ffffff">PRECISION PUZZLE</text>
</svg>
